<?xml version="1.0" encoding="UTF-8"?>
<svg xmlns="http://www.w3.org/2000/svg" xmlns:xlink="http://www.w3.org/1999/xlink" width="100px" height="100px" viewBox="0 0 100 100" version="1.1">
<g id="surface1">
<path style=" stroke:none;fill-rule:nonzero;fill:rgb(0%,0%,0%);fill-opacity:1;" d="M 71.929688 80.78125 C 72.574219 80.78125 73.101562 80.257812 73.101562 79.609375 L 73.101562 78.4375 C 73.101562 77.789062 72.574219 77.265625 71.929688 77.265625 C 71.28125 77.265625 70.757812 77.789062 70.757812 78.4375 L 70.757812 79.609375 C 70.757812 80.257812 71.28125 80.78125 71.929688 80.78125 Z M 71.929688 80.78125 "/>
<path style=" stroke:none;fill-rule:nonzero;fill:rgb(0%,0%,0%);fill-opacity:1;" d="M 42.992188 11.9375 C 40.394531 15.492188 38.90625 19.730469 38.714844 24.128906 L 37.265625 24.128906 C 36.621094 24.128906 36.09375 24.652344 36.09375 25.300781 L 36.09375 30.277344 C 36.09375 30.925781 36.621094 31.449219 37.265625 31.449219 L 39.640625 31.449219 L 39.78125 33.464844 C 38.355469 33.960938 37.28125 35.148438 36.929688 36.617188 C 36.257812 39.363281 37.757812 42.175781 40.414062 43.152344 C 40.722656 49.523438 44.308594 55.28125 49.894531 58.363281 L 49.894531 62.59375 L 48.289062 63.28125 C 43.601562 61.035156 39.148438 58.335938 34.992188 55.21875 C 34.574219 54.90625 34.003906 54.90625 33.585938 55.21875 C 28.5625 58.984375 23.109375 62.144531 17.339844 64.625 L 17.230469 64.671875 C 16.800781 64.855469 16.523438 65.28125 16.523438 65.75 L 16.523438 77.773438 C 16.523438 84.023438 19.507812 89.511719 25.15625 93.644531 C 27.746094 95.539062 30.621094 97.007812 33.671875 98 C 33.882812 98.0625 34.109375 98.0625 34.320312 98.003906 C 37.460938 97.015625 40.429688 95.550781 43.121094 93.65625 C 44.277344 92.84375 45.363281 91.933594 46.367188 90.941406 L 82.304688 90.941406 C 82.953125 90.941406 83.476562 90.417969 83.476562 89.769531 L 83.476562 75.386719 C 83.476562 75.355469 83.476562 75.320312 83.472656 75.289062 C 83.164062 71.695312 81.011719 68.519531 77.789062 66.894531 C 77.769531 66.882812 77.75 66.875 77.726562 66.863281 L 67.71875 62.59375 L 67.71875 58.316406 C 73.257812 55.21875 76.808594 49.488281 77.113281 43.148438 C 79.761719 42.171875 81.253906 39.359375 80.585938 36.617188 C 80.234375 35.152344 79.164062 33.96875 77.746094 33.46875 L 77.886719 31.449219 L 80.347656 31.449219 C 80.996094 31.449219 81.519531 30.925781 81.519531 30.277344 L 81.519531 25.300781 C 81.519531 24.652344 80.996094 24.128906 80.347656 24.128906 L 78.902344 24.128906 C 78.71875 19.722656 77.226562 15.476562 74.621094 11.921875 C 72.148438 8.542969 68.683594 6.015625 64.707031 4.691406 L 64.859375 3.246094 C 64.894531 2.914062 64.785156 2.585938 64.5625 2.339844 C 64.339844 2.09375 64.027344 1.953125 63.695312 1.953125 L 53.921875 1.953125 C 53.589844 1.953125 53.273438 2.09375 53.050781 2.339844 C 52.828125 2.585938 52.722656 2.914062 52.753906 3.246094 L 52.90625 4.691406 C 48.929688 6.019531 45.464844 8.550781 42.992188 11.9375 Z M 71.140625 74.128906 L 71.140625 66.601562 L 72.714844 67.273438 L 72.714844 74.128906 Z M 74.671875 76.472656 L 74.671875 88.597656 L 48.414062 88.597656 C 50.789062 85.488281 52.070312 81.683594 52.058594 77.769531 L 52.058594 76.472656 Z M 41.820312 91.703125 C 39.417969 93.386719 36.789062 94.714844 34.007812 95.644531 C 31.339844 94.71875 28.824219 93.410156 26.539062 91.753906 C 21.445312 88.027344 18.863281 83.320312 18.863281 77.769531 L 18.863281 66.515625 C 24.316406 64.121094 29.488281 61.132812 34.289062 57.613281 C 39.089844 61.132812 44.261719 64.121094 49.714844 66.515625 L 49.714844 77.769531 C 49.714844 83.292969 47.058594 87.980469 41.820312 91.703125 Z M 81.132812 75.4375 L 81.132812 88.597656 L 77.015625 88.597656 L 77.015625 75.300781 C 77.015625 74.65625 76.492188 74.128906 75.84375 74.128906 L 75.058594 74.128906 L 75.058594 68.273438 L 76.773438 69.007812 C 79.234375 70.261719 80.878906 72.6875 81.132812 75.4375 Z M 68.796875 65.601562 L 68.796875 74.128906 L 52.058594 74.128906 L 52.058594 65.746094 C 52.058594 65.476562 51.964844 65.21875 51.792969 65.007812 C 56.570312 66.933594 61.925781 66.808594 66.613281 64.667969 Z M 65.375 62.65625 C 61.1875 64.480469 56.425781 64.480469 52.238281 62.65625 L 52.238281 59.453125 C 56.472656 61.0625 61.152344 61.050781 65.375 59.417969 Z M 78.308594 37.171875 C 78.519531 38.035156 78.363281 38.945312 77.882812 39.6875 C 77.398438 40.429688 76.628906 40.941406 75.757812 41.097656 C 75.199219 41.195312 74.789062 41.683594 74.789062 42.25 L 74.789062 42.277344 C 74.789062 51.128906 67.613281 58.304688 58.761719 58.304688 C 49.910156 58.304688 42.734375 51.128906 42.734375 42.277344 L 42.734375 42.253906 C 42.734375 41.683594 42.328125 41.195312 41.765625 41.097656 C 40.890625 40.941406 40.121094 40.433594 39.636719 39.691406 C 39.152344 38.945312 38.996094 38.035156 39.207031 37.171875 C 39.355469 36.515625 39.816406 35.976562 40.441406 35.722656 C 40.660156 35.984375 40.929688 36.199219 41.234375 36.359375 L 43.296875 37.417969 C 43.75 37.648438 44.289062 37.640625 44.734375 37.390625 C 45.179688 37.144531 45.472656 36.6875 45.511719 36.179688 L 45.890625 31.449219 L 71.105469 31.449219 C 71.296875 32.273438 71.523438 33.089844 71.789062 33.886719 L 72.828125 37 C 72.988281 37.492188 73.394531 37.871094 73.898438 37.996094 C 74.019531 38.027344 74.148438 38.042969 74.277344 38.042969 C 74.660156 38.042969 75.03125 37.898438 75.3125 37.632812 L 76.761719 36.28125 C 76.921875 36.128906 77.066406 35.960938 77.191406 35.777344 C 77.757812 36.046875 78.167969 36.5625 78.308594 37.171875 Z M 41.992188 31.449219 L 43.542969 31.449219 L 43.277344 34.769531 L 42.308594 34.273438 C 42.230469 34.234375 42.179688 34.15625 42.171875 34.066406 Z M 75.347656 34.175781 C 75.339844 34.324219 75.273438 34.464844 75.164062 34.566406 L 74.644531 35.050781 L 74.011719 33.144531 C 73.824219 32.585938 73.660156 32.019531 73.515625 31.449219 L 75.535156 31.449219 Z M 79.175781 29.105469 L 72.566406 29.105469 C 72.226562 28.929688 71.824219 28.929688 71.484375 29.105469 L 44.796875 29.105469 C 44.789062 29.105469 44.78125 29.105469 44.777344 29.105469 L 38.4375 29.105469 L 38.4375 26.472656 L 79.175781 26.472656 Z M 54.472656 6.671875 C 55.03125 6.523438 55.398438 5.992188 55.335938 5.417969 L 55.21875 4.296875 L 62.394531 4.296875 L 62.277344 5.417969 C 62.21875 5.992188 62.585938 6.523438 63.140625 6.671875 C 64.035156 6.914062 64.910156 7.226562 65.753906 7.613281 L 65.753906 9.445312 C 65.753906 13.796875 63.074219 17.703125 59.011719 19.265625 C 54.730469 17.828125 51.851562 13.8125 51.859375 9.296875 L 51.859375 7.617188 C 52.703125 7.226562 53.578125 6.914062 54.472656 6.671875 Z M 49.515625 8.917969 L 49.515625 9.296875 C 49.507812 14.875 53.097656 19.820312 58.40625 21.535156 L 58.671875 21.621094 C 58.914062 21.699219 59.175781 21.699219 59.414062 21.617188 C 64.609375 19.828125 68.097656 14.941406 68.097656 9.445312 L 68.097656 8.914062 C 69.890625 10.097656 71.460938 11.585938 72.738281 13.316406 C 75.046875 16.464844 76.375 20.226562 76.554688 24.128906 L 41.0625 24.128906 C 41.25 20.234375 42.574219 16.480469 44.875 13.332031 C 46.152344 11.601562 47.722656 10.105469 49.515625 8.917969 Z M 49.515625 8.917969 "/>
<path style=" stroke:none;fill-rule:nonzero;fill:rgb(0%,0%,0%);fill-opacity:1;" d="M 56.726562 14.578125 L 61.339844 14.578125 C 61.988281 14.578125 62.511719 14.054688 62.511719 13.40625 C 62.511719 12.757812 61.988281 12.234375 61.339844 12.234375 L 56.726562 12.234375 C 56.078125 12.234375 55.554688 12.757812 55.554688 13.40625 C 55.554688 14.054688 56.078125 14.578125 56.726562 14.578125 Z M 56.726562 14.578125 "/>
<path style=" stroke:none;fill-rule:nonzero;fill:rgb(0%,0%,0%);fill-opacity:1;" d="M 56.726562 10.324219 L 61.339844 10.324219 C 61.988281 10.324219 62.511719 9.796875 62.511719 9.152344 C 62.511719 8.503906 61.988281 7.980469 61.339844 7.980469 L 56.726562 7.980469 C 56.078125 7.980469 55.554688 8.503906 55.554688 9.152344 C 55.554688 9.796875 56.078125 10.324219 56.726562 10.324219 Z M 56.726562 10.324219 "/>
<path style=" stroke:none;fill-rule:nonzero;fill:rgb(0%,0%,0%);fill-opacity:1;" d="M 40.683594 71.34375 L 32.140625 79.167969 L 27.964844 74.640625 C 27.527344 74.167969 26.785156 74.136719 26.308594 74.574219 C 25.832031 75.011719 25.804688 75.753906 26.242188 76.230469 L 31.207031 81.617188 C 31.644531 82.089844 32.386719 82.121094 32.863281 81.6875 L 42.265625 73.070312 C 42.742188 72.632812 42.777344 71.894531 42.339844 71.414062 C 41.902344 70.9375 41.160156 70.90625 40.683594 71.34375 Z M 40.683594 71.34375 "/>
</g>
</svg>
